<?xml version="1.0" standalone="no"?>
<!DOCTYPE svg PUBLIC "-//W3C//DTD SVG 20010904//EN"
 "http://www.w3.org/TR/2001/REC-SVG-20010904/DTD/svg10.dtd">
<svg version="1.0" xmlns="http://www.w3.org/2000/svg"
 width="900.000000pt" height="900.000000pt" viewBox="0 0 900.000000 900.000000"
 preserveAspectRatio="xMidYMid meet">
<metadata>
Created by potrace 1.10, written by Peter Selinger 2001-2011
</metadata>
<g transform="translate(0.000000,900.000000) scale(0.100000,-0.100000)"
fill="#ffffff" stroke="none">
<path d="M4200 7959 c-194 -18 -271 -28 -301 -37 -19 -6 -61 -15 -94 -21 -137
-24 -181 -35 -280 -66 -22 -7 -74 -22 -115 -34 -41 -12 -83 -27 -92 -32 -10
-5 -23 -9 -30 -9 -7 -1 -31 -9 -53 -20 -22 -11 -44 -19 -48 -20 -18 0 -296
-135 -417 -201 -415 -227 -835 -610 -1144 -1044 -55 -77 -164 -253 -189 -305
-6 -14 -14 -27 -17 -30 -7 -6 -90 -176 -120 -245 -12 -27 -28 -64 -36 -82 -8
-17 -14 -37 -14 -45 0 -8 -4 -18 -9 -23 -11 -13 -77 -209 -120 -360 -12 -43
-26 -107 -42 -195 -6 -30 -15 -71 -20 -90 -11 -39 -23 -132 -40 -320 -12 -141
-6 -602 10 -690 6 -30 15 -89 20 -130 6 -41 17 -106 25 -145 7 -38 19 -99 26
-135 7 -36 16 -69 21 -75 5 -5 9 -17 9 -27 0 -9 6 -37 13 -60 8 -24 24 -77 37
-118 13 -41 27 -79 31 -85 5 -5 9 -16 9 -25 0 -8 7 -28 15 -44 8 -15 15 -33
15 -38 0 -8 12 -38 50 -123 37 -84 117 -246 135 -275 12 -19 36 -60 52 -90 27
-48 46 -78 115 -184 41 -62 213 -285 268 -347 163 -184 357 -362 550 -503 58
-42 110 -80 115 -84 6 -5 42 -27 80 -51 39 -23 77 -46 85 -51 111 -68 274
-153 385 -200 11 -5 40 -18 65 -28 25 -11 86 -34 135 -52 50 -18 99 -36 110
-40 39 -16 159 -50 176 -50 10 0 20 -4 23 -9 3 -4 25 -11 48 -15 43 -6 144
-27 228 -47 43 -10 101 -18 300 -39 106 -11 505 -11 625 0 195 18 274 28 306
38 19 6 59 15 89 21 79 14 149 30 184 41 17 5 65 19 106 30 41 12 82 25 90 29
9 5 31 12 50 16 19 4 41 11 50 16 8 4 56 24 106 43 96 37 188 77 239 103 17 8
57 29 90 46 84 43 276 159 367 222 236 162 486 389 668 605 30 36 57 67 60 70
15 12 157 207 200 274 48 75 151 250 178 304 18 34 36 70 42 80 12 23 65 142
92 206 11 28 27 65 34 83 8 17 14 35 14 41 0 5 7 23 15 38 8 16 15 37 15 47 0
9 4 25 9 35 8 15 27 73 60 187 12 40 21 83 41 185 6 30 15 75 21 100 11 45 22
133 39 310 12 122 12 446 0 575 -19 206 -29 296 -35 305 -3 5 -12 45 -20 87
-26 144 -34 180 -71 303 -41 138 -88 272 -124 355 -51 120 -69 158 -110 240
-52 101 -146 271 -161 289 -5 6 -32 45 -59 86 -63 95 -73 110 -85 124 -6 6
-33 40 -60 76 -121 161 -349 398 -498 521 -44 35 -93 76 -110 91 -18 15 -35
28 -38 28 -3 0 -17 9 -30 21 -66 58 -318 214 -474 293 -33 17 -61 34 -63 39
-2 4 -8 7 -13 7 -9 0 -53 18 -134 55 -54 25 -99 42 -190 75 -49 18 -99 36
-110 40 -11 5 -54 18 -95 30 -41 11 -91 25 -110 31 -43 12 -111 26 -213 44
-42 8 -81 17 -87 20 -5 3 -56 11 -112 16 -57 6 -139 15 -183 19 -96 10 -470
10 -575 -1z m447 -852 c168 -39 344 -178 423 -332 31 -60 49 -121 65 -212 14
-84 14 -102 0 -185 -9 -51 -20 -102 -25 -113 -5 -11 -16 -38 -26 -60 -21 -50
-80 -139 -119 -180 -102 -109 -230 -174 -384 -196 -135 -19 -261 0 -381 59
-85 42 -189 132 -239 207 -14 22 -28 42 -31 45 -6 6 -33 63 -53 115 -36 89
-47 244 -26 347 62 308 347 536 654 523 44 -2 108 -10 142 -18z m-30 -1522
c37 -9 82 -22 100 -30 17 -8 33 -15 37 -15 13 0 123 -72 167 -110 54 -46 134
-159 145 -205 4 -17 12 -36 18 -44 8 -10 11 -409 11 -1440 l0 -1426 -28 -70
c-46 -117 -92 -179 -188 -255 -116 -91 -329 -155 -437 -131 -26 5 -67 13 -92
16 -164 23 -327 136 -397 276 -66 132 -63 48 -63 1573 0 1239 2 1388 16 1432
38 117 107 226 179 285 52 41 141 99 154 99 5 0 22 5 38 12 44 19 173 46 225
47 26 1 77 -6 115 -14z"/>
</g>
</svg>
