<?xml version="1.0" standalone="no"?>
<!DOCTYPE svg PUBLIC "-//W3C//DTD SVG 20010904//EN"
 "http://www.w3.org/TR/2001/REC-SVG-20010904/DTD/svg10.dtd">
<svg version="1.0" xmlns="http://www.w3.org/2000/svg"
 width="900.000000pt" height="900.000000pt" viewBox="0 0 900.000000 900.000000"
 preserveAspectRatio="xMidYMid meet">
<metadata>
Created by potrace 1.10, written by Peter Selinger 2001-2011
</metadata>
<g transform="translate(0.000000,900.000000) scale(0.100000,-0.100000)"
fill="#ffffff" stroke="none">
<path d="M3692 7368 c-621 -622 -784 -780 -792 -768 -6 9 -10 159 -10 367 0
194 -4 362 -9 375 -5 13 -12 36 -16 52 -4 17 -31 53 -65 86 -52 51 -68 60
-129 75 -61 15 -78 15 -123 4 -82 -20 -152 -66 -188 -124 -50 -81 -50 -74 -50
-780 0 -363 -4 -666 -9 -673 -4 -7 -280 -286 -612 -620 -611 -614 -626 -631
-658 -733 -36 -115 8 -259 106 -349 87 -80 121 -93 243 -93 95 -1 110 2 160
27 46 23 302 275 1497 1469 1316 1315 1443 1439 1459 1426 10 -8 656 -654
1437 -1436 1206 -1207 1429 -1427 1481 -1454 57 -31 67 -33 161 -33 110 0 146
12 220 68 61 47 82 75 115 153 50 119 36 243 -40 346 -29 40 -3379 3397 -3390
3397 -3 0 -357 -352 -788 -782z"/>
<path d="M3088 5169 l-1388 -1381 0 -1450 0 -1450 28 -28 c19 -19 43 -30 73
-35 24 -3 719 -4 1544 -3 l1500 3 2 1270 c3 1180 4 1271 20 1283 13 9 172 12
715 12 681 0 698 0 708 -19 7 -14 10 -423 10 -1276 0 -691 2 -1261 5 -1266 4
-5 181 -9 433 -9 386 0 430 2 462 18 74 37 69 -79 70 1513 l0 1425 -1032 1032
c-1183 1181 -1749 1742 -1757 1742 -3 0 -630 -622 -1393 -1381z m860 -1787
c10 -7 12 -134 10 -603 l-3 -594 -645 0 -645 0 -3 594 c-2 469 0 596 10 603 7
4 294 8 638 8 344 0 631 -4 638 -8z"/>
</g>
</svg>
