 <svg  version="1.0" xmlns="http://www.w3.org/2000/svg"  width="900.000000pt" height="900.000000pt" viewBox="0 0 900.000000 900.000000"  preserveAspectRatio="xMidYMid meet">  <g transform="translate(0.000000,900.000000) scale(0.100000,-0.100000)" fill="#ffffff" stroke="none"> <path d="M5235 8121 c-16 -4 -39 -12 -50 -18 -36 -19 -127 -59 -265 -117 -74 -32 -144 -61 -155 -66 -27 -12 -81 -34 -130 -53 -168 -66 -199 -77 -207 -77 -6 0 -24 -6 -41 -14 -32 -14 -292 -101 -497 -165 -58 -18 -118 -38 -135 -43 -68 -22 -202 -59 -295 -82 -30 -8 -82 -21 -115 -30 -155 -42 -397 -101 -484 -117 -30 -5 -59 -13 -64 -16 -5 -3 -40 -12 -76 -20 -349 -72 -483 -98 -590 -113 -41 -6 -78 -13 -83 -16 -10 -7 -160 -31 -272 -45 -166 -20 -245 -64 -296 -165 -34 -67 -35 -198 -1 -261 23 -43 90 -111 132 -133 13 -7 29 -18 36 -24 7 -6 42 -31 78 -56 65 -44 310 -221 330 -238 6 -5 35 -26 65 -47 30 -21 57 -41 60 -45 3 -3 64 -51 135 -105 72 -55 132 -102 135 -105 3 -3 37 -30 75 -60 39 -30 72 -57 75 -60 3 -3 52 -45 110 -92 58 -47 114 -94 125 -105 11 -10 32 -28 47 -39 15 -12 60 -51 100 -86 40 -36 98 -87 128 -113 171 -149 623 -589 800 -780 89 -96 262 -294 337 -385 96 -117 155 -152 258 -151 114 1 220 68 266 167 22 49 26 164 9 274 -12 78 -37 280 -50 410 -5 52 -14 120 -19 150 -6 30 -13 90 -17 132 -5 65 -3 79 10 84 15 6 72 -11 143 -42 17 -8 36 -14 43 -14 37 0 404 -204 450 -250 3 -3 39 -32 80 -64 207 -165 391 -399 481 -616 94 -223 127 -397 128 -655 0 -383 -112 -701 -355 -1007 -184 -231 -468 -453 -749 -586 -38 -18 -83 -40 -98 -48 -16 -8 -33 -14 -39 -14 -5 0 -24 -6 -41 -14 -76 -34 -264 -88 -387 -112 -352 -68 -778 -48 -1120 52 -115 34 -246 76 -277 90 -17 8 -37 14 -45 14 -8 0 -18 4 -24 8 -5 4 -36 18 -69 31 -62 24 -282 131 -370 180 -124 68 -363 229 -413 278 -7 7 -16 13 -20 13 -4 0 -23 14 -42 31 -19 17 -62 54 -95 82 -33 28 -119 109 -191 179 -72 71 -138 128 -148 128 -26 0 -31 -29 -10 -68 10 -20 24 -41 29 -47 10 -11 16 -19 61 -95 15 -25 57 -85 94 -135 36 -49 73 -102 82 -116 9 -14 23 -32 30 -40 8 -8 36 -43 63 -79 27 -36 59 -76 71 -90 12 -14 48 -56 80 -95 148 -177 441 -468 578 -572 33 -26 66 -52 71 -58 23 -25 307 -225 320 -225 3 0 24 -12 48 -27 82 -53 188 -108 312 -163 99 -43 111 -48 160 -65 28 -10 64 -24 82 -31 17 -8 36 -14 43 -14 10 0 32 -6 160 -44 41 -13 99 -26 250 -55 227 -45 749 -46 941 -2 43 10 106 23 202 41 26 5 62 13 80 19 17 5 79 25 137 42 58 18 125 41 150 52 25 10 56 23 70 29 14 5 39 16 55 23 201 84 444 229 644 382 156 120 370 332 490 484 28 35 55 70 61 77 17 19 140 202 140 207 0 3 17 33 38 67 32 52 118 224 152 303 51 118 140 389 140 427 0 11 5 28 10 38 10 19 18 61 45 235 31 199 37 302 32 515 -3 118 -10 240 -16 270 -6 30 -15 84 -21 120 -15 95 -28 156 -39 193 -5 17 -16 57 -25 87 -30 107 -59 195 -68 205 -4 5 -8 15 -8 23 0 8 -6 28 -14 45 -8 18 -24 55 -36 82 -22 50 -96 202 -118 240 -193 348 -423 640 -713 904 -114 105 -123 112 -219 186 -88 69 -355 244 -404 266 -12 5 -34 17 -51 27 -44 27 -138 75 -245 125 -148 70 -188 87 -203 87 -7 0 -17 3 -20 6 -10 10 -120 54 -135 54 -7 0 -20 4 -30 10 -9 5 -29 14 -44 20 -30 10 -37 39 -15 62 7 7 31 42 52 78 22 36 43 70 48 75 9 11 47 70 265 410 25 39 66 102 92 140 75 114 103 180 102 250 0 106 -67 214 -159 256 -48 22 -151 33 -198 20z"/> </g> </svg> 