 <svg  version="1.0" xmlns="http://www.w3.org/2000/svg"  width="900.000000pt" height="900.000000pt" viewBox="0 0 900.000000 900.000000"  preserveAspectRatio="xMidYMid meet">  <g transform="translate(0.000000,900.000000) scale(0.100000,-0.100000)" fill="#ffffff" stroke="none"> <path d="M5812 8081 c-23 -4 -50 -14 -58 -23 -17 -17 -29 -88 -45 -288 -15 -180 -17 -186 -66 -193 -43 -5 -81 -18 -168 -58 -131 -59 -155 -71 -161 -80 -10 -17 -56 -9 -82 15 -32 29 -195 164 -271 224 -29 23 -59 42 -65 42 -39 -1 -376 -345 -376 -385 0 -10 82 -114 192 -247 54 -64 98 -122 97 -130 0 -7 -9 -26 -19 -43 -34 -54 -86 -169 -104 -230 -31 -99 -38 -115 -55 -124 -9 -5 -72 -14 -141 -20 -154 -14 -278 -31 -306 -42 -20 -7 -23 -18 -29 -123 -10 -152 6 -391 26 -412 15 -15 56 -20 319 -45 69 -6 130 -16 137 -21 6 -5 24 -48 39 -96 29 -94 71 -188 116 -266 16 -27 27 -54 24 -60 -2 -6 -61 -78 -131 -161 -146 -173 -162 -199 -143 -223 116 -151 336 -362 378 -362 7 0 29 15 50 33 20 17 86 72 146 121 60 49 114 94 119 100 34 36 55 48 67 39 22 -17 131 -75 158 -84 14 -4 57 -19 95 -33 39 -14 80 -26 91 -26 12 0 26 -6 31 -12 11 -15 44 -252 43 -314 0 -60 21 -152 38 -166 11 -10 74 -13 241 -13 234 0 292 8 305 42 4 9 11 77 16 152 11 164 27 293 38 302 4 3 32 14 62 24 115 37 246 93 280 121 44 35 54 31 208 -98 195 -163 207 -172 240 -163 30 7 251 226 324 321 l46 60 -51 66 c-50 63 -177 216 -224 268 -30 33 -29 48 8 122 17 35 37 77 44 93 6 17 20 47 29 68 9 21 16 46 16 56 0 10 6 34 14 52 l14 34 109 12 c59 7 164 17 232 22 71 6 127 15 131 21 4 6 13 70 20 141 10 106 10 157 0 270 -7 77 -17 142 -22 145 -9 6 -111 17 -313 35 -71 7 -137 15 -146 20 -9 4 -22 30 -28 56 -13 49 -32 101 -59 163 -38 86 -48 106 -58 120 -29 39 -25 67 19 121 23 28 56 69 72 89 62 77 110 136 143 173 37 43 36 57 -6 109 -52 64 -238 245 -294 287 l-58 43 -57 -43 c-32 -24 -113 -90 -180 -146 -117 -98 -160 -121 -177 -94 -7 11 -211 111 -227 111 -6 0 -34 8 -63 17 -28 10 -52 18 -53 18 -4 0 -33 237 -34 280 0 27 -6 82 -13 120 -17 97 -20 98 -261 101 -104 2 -209 -1 -233 -5z m368 -1180 c90 -22 118 -34 190 -80 103 -66 186 -151 243 -251 42 -72 55 -110 72 -200 30 -156 11 -302 -58 -440 -54 -111 -188 -249 -287 -296 -109 -52 -141 -63 -237 -75 -133 -18 -276 5 -388 63 -85 45 -177 122 -233 197 -86 114 -114 178 -137 315 -17 103 -15 147 12 266 33 147 133 293 268 396 54 41 157 89 230 107 86 22 234 21 325 -2z"/> <path d="M5890 6805 c-155 -34 -309 -152 -378 -289 -63 -128 -66 -140 -66 -275 0 -99 4 -138 19 -181 42 -118 116 -219 213 -293 54 -41 82 -56 163 -91 77 -33 287 -30 379 6 121 46 254 161 318 276 84 150 84 401 0 558 -49 90 -182 214 -268 249 -8 4 -23 10 -32 15 -67 36 -242 49 -348 25z m208 -141 c102 -21 181 -64 247 -136 64 -69 88 -120 105 -218 21 -124 -13 -263 -86 -349 -36 -43 -130 -113 -184 -136 -36 -16 -66 -20 -160 -20 -110 1 -118 2 -183 35 -88 44 -163 118 -206 206 -33 66 -35 74 -35 184 -1 100 2 122 23 170 33 78 78 136 135 178 82 60 102 68 241 96 11 2 21 4 23 5 2 0 38 -6 80 -15z"/> <path d="M3782 5668 c-7 -7 -12 -20 -12 -29 0 -10 -4 -20 -10 -24 -5 -3 -14 -20 -19 -38 -10 -33 -23 -68 -61 -167 -12 -30 -25 -68 -30 -85 -5 -16 -18 -55 -30 -85 -12 -30 -24 -66 -27 -80 -11 -52 -23 -57 -176 -64 -143 -7 -280 -27 -350 -52 -67 -25 -82 -19 -124 41 -21 30 -69 97 -106 148 -38 50 -84 115 -101 142 -18 28 -52 73 -74 102 l-42 52 -39 -14 c-54 -19 -208 -93 -256 -124 -22 -14 -56 -34 -75 -44 -57 -31 -162 -104 -209 -145 l-44 -38 48 -99 c26 -55 59 -127 75 -160 15 -33 48 -103 73 -156 59 -125 64 -142 40 -166 -103 -104 -293 -351 -293 -381 0 -19 -38 -42 -71 -42 -19 0 -65 6 -104 14 -38 8 -115 22 -170 31 -55 9 -141 23 -191 32 -50 9 -97 14 -105 11 -8 -3 -22 -28 -32 -54 -10 -27 -25 -66 -33 -86 -36 -96 -43 -118 -57 -188 -23 -108 -45 -237 -52 -299 -6 -55 10 -91 41 -91 7 0 28 -6 46 -14 18 -8 51 -21 73 -29 64 -24 128 -49 160 -62 17 -7 50 -21 75 -30 25 -9 60 -23 78 -31 18 -8 39 -14 46 -14 33 0 43 -34 50 -165 6 -119 19 -205 48 -325 28 -113 28 -111 -56 -171 -218 -155 -406 -301 -406 -316 0 -23 70 -172 119 -253 11 -19 24 -42 28 -50 3 -8 18 -33 32 -55 14 -22 30 -48 36 -57 35 -57 106 -156 124 -172 17 -15 26 -17 44 -9 12 6 51 24 87 41 36 16 94 43 130 60 36 16 90 41 120 55 30 14 85 39 122 56 37 17 71 31 75 31 4 -1 44 -35 88 -76 70 -66 183 -148 306 -222 54 -33 58 -41 49 -92 -5 -25 -15 -88 -24 -140 -8 -52 -22 -138 -30 -190 -8 -52 -18 -125 -21 -161 l-6 -65 33 -16 c113 -55 439 -142 615 -165 36 -5 44 -3 48 13 4 11 12 33 19 49 8 17 21 49 30 73 27 71 48 125 62 165 30 81 47 123 60 155 8 18 14 40 14 49 0 8 9 31 21 49 21 34 21 34 102 35 158 1 265 17 387 55 25 8 56 14 70 14 27 0 36 -11 184 -225 27 -38 68 -95 91 -125 22 -30 51 -71 63 -91 12 -20 29 -42 37 -49 17 -14 18 -13 225 88 94 47 282 167 338 216 16 15 37 33 47 40 24 17 25 16 -127 346 -17 36 -44 94 -60 130 -16 36 -34 73 -39 83 -12 22 -9 27 77 117 33 36 73 83 87 105 72 108 104 158 127 196 28 46 26 45 163 20 31 -6 83 -16 115 -22 31 -6 89 -14 127 -19 39 -5 86 -14 105 -20 19 -5 57 -10 85 -10 l50 0 18 48 c10 26 25 62 33 80 8 18 14 39 14 47 0 8 6 29 14 47 45 108 114 441 96 463 -11 13 -102 52 -262 111 -82 30 -124 47 -156 60 -18 8 -40 14 -50 14 -9 0 -26 7 -36 15 -11 8 -28 15 -37 15 -10 0 -20 4 -23 9 -6 9 -12 71 -21 211 -6 93 -21 179 -52 290 l-15 54 33 29 c30 25 57 44 159 114 21 14 295 218 309 230 8 6 -26 100 -60 163 -4 8 -18 35 -30 60 -56 111 -218 352 -262 389 -17 14 -69 -9 -482 -205 -88 -41 -78 -44 -185 55 -64 60 -135 113 -260 195 l-65 43 3 64 c1 35 9 102 17 149 8 47 21 128 29 180 39 249 39 233 -2 249 -15 5 -52 19 -82 31 -102 39 -243 80 -360 104 -205 42 -201 41 -218 24z m-143 -1499 c230 -36 450 -161 569 -323 46 -63 75 -114 143 -257 4 -8 17 -54 29 -102 34 -133 21 -342 -31 -487 -99 -278 -319 -478 -623 -565 -87 -25 -306 -23 -407 3 -190 50 -302 113 -425 237 -181 183 -274 411 -262 641 9 157 63 334 141 459 45 73 136 167 222 230 185 137 428 199 644 164z"/> <path d="M3380 4040 c-84 -15 -121 -30 -288 -119 -34 -18 -175 -159 -193 -193 -54 -102 -89 -181 -89 -203 0 -9 -5 -26 -11 -37 -6 -12 -17 -64 -23 -117 -18 -150 7 -304 65 -408 123 -216 286 -347 507 -404 63 -17 99 -20 202 -16 192 7 318 54 464 174 123 99 206 238 251 413 20 80 16 277 -8 356 -65 218 -220 404 -410 492 -37 18 -73 32 -81 32 -7 0 -31 7 -51 16 -44 18 -263 28 -335 14z m265 -195 c22 -8 47 -15 55 -15 31 0 144 -67 202 -119 120 -108 189 -261 190 -416 0 -73 -23 -190 -41 -208 -6 -6 -11 -17 -11 -25 0 -18 -59 -107 -102 -153 -43 -47 -133 -113 -183 -134 -52 -22 -188 -55 -227 -55 -52 0 -200 40 -268 73 -87 42 -183 141 -232 239 -56 112 -68 161 -68 269 0 105 22 184 76 277 31 53 149 176 185 192 13 6 38 18 54 28 17 9 59 26 95 38 78 27 213 31 275 9z"/> </g> </svg> 